<?xml version="1.0" encoding="utf-8"?>
<!-- Generator: Adobe Illustrator 23.0.1, SVG Export Plug-In . SVG Version: 6.00 Build 0)  -->
<svg version="1.1" id="Layer_1" xmlns="http://www.w3.org/2000/svg" xmlns:xlink="http://www.w3.org/1999/xlink" x="0px" y="0px"
	 viewBox="0 0 32 32" style="enable-background:new 0 0 32 32;" xml:space="preserve">
<style type="text/css">
	.st0{fill:#FFFFFF;}
</style>
<g id="data">
	<path class="st0" d="M16,0C9.3,0,2,2,2,6.5v19C2,30,9.3,32,16,32c6.7,0,14-2,14-6.5v-19C30,2,22.7,0,16,0z M28,25.5
		C28,28,22.6,30,16,30c-6.6,0-12-2-12-4.5v-3.7c2.1,2.1,7.1,3.2,12,3.2s9.9-1.1,12-3.2V25.5z M28,19.5L28,19.5
		C28,19.5,28,19.5,28,19.5C28,22,22.6,24,16,24S4,22,4,19.5c0,0,0,0,0,0h0v-3.7c2.1,2.1,7.1,3.2,12,3.2s9.9-1.1,12-3.2V19.5z
		 M28,13.5L28,13.5C28,13.5,28,13.5,28,13.5C28,16,22.6,18,16,18S4,16,4,13.5c0,0,0,0,0,0h0v-3.4c2.6,2,7.4,2.9,12,2.9
		s9.4-0.9,12-2.9V13.5z M16,11C9.4,11,4,9,4,6.5C4,4,9.4,2,16,2c6.6,0,12,2,12,4.5C28,9,22.6,11,16,11z"/>
	<circle class="st0" cx="25" cy="26" r="1"/>
	<circle class="st0" cx="25" cy="20" r="1"/>
	<circle class="st0" cx="25" cy="14" r="1"/>
</g>
</svg>
